ffmpeg version 4.2.2 Copyright (c) 2000-2019 the FFmpeg developers
  built with gcc 9.2.1 (GCC) 20200122
  configuration: --enable-gpl --enable-version3 --enable-sdl2 --enable-fontconfig --enable-gnutls --enable-iconv --enable-libass --enable-libdav1d --enable-libbluray --enable-libfreetype --enable-libmp3lame --enable-libopencore-amrnb --enable-libopencore-amrwb --enable-libopenjpeg --enable-libopus --enable-libshine --enable-libsnappy --enable-libsoxr --enable-libtheora --enable-libtwolame --enable-libvpx --enable-libwavpack --enable-libwebp --enable-libx264 --enable-libx265 --enable-libxml2 --enable-libzimg --enable-lzma --enable-zlib --enable-gmp --enable-libvidstab --enable-libvorbis --enable-libvo-amrwbenc --enable-libmysofa --enable-libspeex --enable-libxvid --enable-libaom --enable-libmfx --enable-amf --enable-ffnvcodec --enable-cuvid --enable-d3d11va --enable-nvenc --enable-nvdec --enable-dxva2 --enable-avisynth --enable-libopenmpt
  libavutil      56. 31.100 / 56. 31.100
  libavcodec     58. 54.100 / 58. 54.100
  libavformat    58. 29.100 / 58. 29.100
  libavdevice    58.  8.100 / 58.  8.100
  libavfilter     7. 57.100 /  7. 57.100
  libswscale      5.  5.100 /  5.  5.100
  libswresample   3.  5.100 /  3.  5.100
  libpostproc    55.  5.100 / 55.  5.100
Input #0, rawvideo, from 'pipe:':
  Duration: N/A, start: 0.000000, bitrate: 432000 kb/s
    Stream #0:0: Video: rawvideo (RGB[24] / 0x18424752), rgb24, 600x1000, 432000 kb/s, 30 tbr, 30 tbn, 30 tbc
Stream mapping:
  Stream #0:0 -> #0:0 (rawvideo (native) -> h264 (libx264))
[swscaler @ 000001f98c75fec0] Warning: data is not aligned! This can lead to a speed loss
[libx264 @ 000001f98c70bd40] using cpu capabilities: MMX2 SSE2Fast SSSE3 SSE4.2 AVX
[libx264 @ 000001f98c70bd40] profile High, level 3.1, 4:2:0, 8-bit
[libx264 @ 000001f98c70bd40] 264 - core 159 - H.264/MPEG-4 AVC codec - Copyleft 2003-2019 - http://www.videolan.org/x264.html - options: cabac=1 ref=3 deblock=1:0:0 analyse=0x3:0x113 me=hex subme=7 psy=1 psy_rd=1.00:0.00 mixed_ref=1 me_range=16 chroma_me=1 trellis=1 8x8dct=1 cqm=0 deadzone=21,11 fast_pskip=1 chroma_qp_offset=-2 threads=12 lookahead_threads=2 sliced_threads=0 nr=0 decimate=1 interlaced=0 bluray_compat=0 constrained_intra=0 bframes=3 b_pyramid=2 b_adapt=1 b_bias=0 direct=1 weightb=1 open_gop=0 weightp=2 keyint=250 keyint_min=25 scenecut=40 intra_refresh=0 rc_lookahead=40 rc=crf mbtree=1 crf=15.0 qcomp=0.60 qpmin=0 qpmax=69 qpstep=4 ip_ratio=1.40 aq=1:1.00
Output #0, mp4, to 'C:\Users\KROMA-PC\Desktop\HEX_1\../HEX_1.mp4':
  Metadata:
    comment         : Made with Video Export for Processing - https://git.io/vAXLk
    encoder         : Lavf58.29.100
    Stream #0:0: Video: h264 (libx264) (avc1 / 0x31637661), yuv420p, 600x1000, q=-1--1, 30 fps, 15360 tbn, 30 tbc
    Metadata:
      encoder         : Lavc58.54.100 libx264
    Side data:
      cpb: bitrate max/min/avg: 0/0/0 buffer size: 0 vbv_delay: -1
frame=   13 fps=0.0 q=0.0 size=       0kB time=00:00:00.00 bitrate=N/A speed=   0x    frame=   27 fps= 25 q=0.0 size=       0kB time=00:00:00.00 bitrate=N/A speed=   0x    frame=   43 fps= 27 q=0.0 size=       0kB time=00:00:00.00 bitrate=N/A speed=   0x    frame=   58 fps= 28 q=21.0 size=       0kB time=-00:00:00.03 bitrate=N/A speed=N/A    frame=   73 fps= 28 q=21.0 size=       0kB time=00:00:00.46 bitrate=   0.8kbits/s speed=0.18x    frame=   88 fps= 28 q=21.0 size=     256kB time=00:00:00.96 bitrate=2169.7kbits/s speed=0.312x    frame=  103 fps= 29 q=21.0 size=     256kB time=00:00:01.46 bitrate=1430.1kbits/s speed=0.408x    frame=  118 fps= 29 q=21.0 size=     512kB time=00:00:01.96 bitrate=2132.8kbits/s speed=0.478x    frame=  134 fps= 29 q=21.0 size=     512kB time=00:00:02.50 bitrate=1677.8kbits/s speed=0.539x    frame=  149 fps= 29 q=21.0 size=     768kB time=00:00:03.00 bitrate=2097.2kbits/s speed=0.584x    frame=  164 fps= 29 q=21.0 size=     768kB time=00:00:03.50 bitrate=1797.6kbits/s speed=0.621x    frame=  179 fps= 29 q=21.0 size=    1024kB time=00:00:04.00 bitrate=2097.2kbits/s speed=0.651x    frame=  194 fps= 29 q=21.0 size=    1024kB time=00:00:04.50 bitrate=1864.2kbits/s speed=0.677x    frame=  209 fps= 29 q=21.0 size=    1280kB time=00:00:05.00 bitrate=2097.2kbits/s speed= 0.7x    frame=  224 fps= 29 q=21.0 size=    1536kB time=00:00:05.50 bitrate=2287.8kbits/s speed=0.719x    frame=  239 fps= 29 q=21.0 size=    1536kB time=00:00:06.00 bitrate=2097.2kbits/s speed=0.736x    frame=  254 fps= 29 q=21.0 size=    1792kB time=00:00:06.50 bitrate=2258.5kbits/s speed=0.75x    frame=  270 fps= 29 q=21.0 size=    1792kB time=00:00:07.03 bitrate=2087.2kbits/s speed=0.764x    frame=  285 fps= 29 q=21.0 size=    2048kB time=00:00:07.53 bitrate=2227.1kbits/s speed=0.776x    frame=  300 fps= 29 q=21.0 size=    2048kB time=00:00:08.03 bitrate=2088.5kbits/s speed=0.787x    frame=  315 fps= 29 q=21.0 size=    2304kB time=00:00:08.53 bitrate=2211.9kbits/s speed=0.797x    frame=  330 fps= 29 q=21.0 size=    2304kB time=00:00:09.03 bitrate=2089.4kbits/s speed=0.806x    frame=  345 fps= 29 q=21.0 size=    2560kB time=00:00:09.53 bitrate=2199.8kbits/s speed=0.813x    frame=  361 fps= 29 q=21.0 size=    2816kB time=00:00:10.06 bitrate=2291.6kbits/s speed=0.822x    frame=  376 fps= 29 q=21.0 size=    2816kB time=00:00:10.56 bitrate=2183.2kbits/s speed=0.828x    frame=  391 fps= 29 q=21.0 size=    3072kB time=00:00:11.06 bitrate=2274.0kbits/s speed=0.835x    frame=  406 fps= 30 q=21.0 size=    3072kB time=00:00:11.56 bitrate=2175.7kbits/s speed=0.841x    frame=  421 fps= 30 q=21.0 size=    3328kB time=00:00:12.06 bitrate=2259.4kbits/s speed=0.846x    frame=  436 fps= 30 q=21.0 size=    3328kB time=00:00:12.56 bitrate=2169.5kbits/s speed=0.851x    frame=  451 fps= 30 q=21.0 size=    3584kB time=00:00:13.06 bitrate=2247.0kbits/s speed=0.856x    frame=  466 fps= 30 q=21.0 size=    3584kB time=00:00:13.56 bitrate=2164.2kbits/s speed=0.86x    frame=  481 fps= 30 q=21.0 size=    3840kB time=00:00:14.06 bitrate=2236.3kbits/s speed=0.865x    frame=  496 fps= 30 q=21.0 size=    4096kB time=00:00:14.56 bitrate=2303.5kbits/s speed=0.868x    frame=  511 fps= 30 q=21.0 size=    4096kB time=00:00:15.06 bitrate=2227.1kbits/s speed=0.872x    frame=  526 fps= 30 q=21.0 size=    4352kB time=00:00:15.56 bitrate=2290.3kbits/s speed=0.876x    frame=  541 fps= 30 q=21.0 size=    4352kB time=00:00:16.06 bitrate=2219.0kbits/s speed=0.879x    frame=  556 fps= 30 q=21.0 size=    4608kB time=00:00:16.56 bitrate=2278.6kbits/s speed=0.882x    frame=  571 fps= 30 q=21.0 size=    4864kB time=00:00:17.06 bitrate=2334.7kbits/s speed=0.885x    frame=  586 fps= 30 q=21.0 size=    4864kB time=00:00:17.56 bitrate=2268.3kbits/s speed=0.887x    frame=  602 fps= 30 q=21.0 size=    5120kB time=00:00:18.10 bitrate=2317.3kbits/s speed=0.89x    frame=  617 fps= 30 q=21.0 size=    5120kB time=00:00:18.60 bitrate=2255.0kbits/s speed=0.893x    frame=  632 fps= 30 q=21.0 size=    5376kB time=00:00:19.10 bitrate=2305.8kbits/s speed=0.895x    frame=  647 fps= 30 q=21.0 size=    5632kB time=00:00:19.60 bitrate=2354.0kbits/s speed=0.898x    frame=  662 fps= 30 q=21.0 size=    5632kB time=00:00:20.10 bitrate=2295.4kbits/s speed= 0.9x    frame=  677 fps= 30 q=21.0 size=    5888kB time=00:00:20.60 bitrate=2341.5kbits/s speed=0.902x    frame=  692 fps= 30 q=21.0 size=    5888kB time=00:00:21.10 bitrate=2286.0kbits/s speed=0.904x    frame=  707 fps= 30 q=21.0 size=    6144kB time=00:00:21.60 bitrate=2330.2kbits/s speed=0.906x    frame=  722 fps= 30 q=21.0 size=    6400kB time=00:00:22.10 bitrate=2372.4kbits/s speed=0.908x    frame=  737 fps= 30 q=21.0 size=    6400kB time=00:00:22.60 bitrate=2319.9kbits/s speed=0.909x    frame=  752 fps= 30 q=21.0 size=    6656kB time=00:00:23.10 bitrate=2360.4kbits/s speed=0.911x    frame=  767 fps= 30 q=21.0 size=    6912kB time=00:00:23.60 bitrate=2399.3kbits/s speed=0.913x    frame=  782 fps= 30 q=21.0 size=    6912kB time=00:00:24.10 bitrate=2349.5kbits/s speed=0.914x    frame=  797 fps= 30 q=21.0 size=    7168kB time=00:00:24.60 bitrate=2387.0kbits/s speed=0.916x    frame=  812 fps= 30 q=21.0 size=    7424kB time=00:00:25.10 bitrate=2423.0kbits/s speed=0.917x    frame=  827 fps= 30 q=21.0 size=    7424kB time=00:00:25.60 bitrate=2375.7kbits/s speed=0.918x    frame=  842 fps= 30 q=21.0 size=    7680kB time=00:00:26.10 bitrate=2410.5kbits/s speed=0.92x    frame=  857 fps= 30 q=21.0 size=    7936kB time=00:00:26.60 bitrate=2444.1kbits/s speed=0.921x    frame=  872 fps= 30 q=21.0 size=    7936kB time=00:00:27.10 bitrate=2399.0kbits/s speed=0.922x    frame=  887 fps= 30 q=21.0 size=    8192kB time=00:00:27.60 bitrate=2431.5kbits/s speed=0.924x    frame=  902 fps= 30 q=21.0 size=    8448kB time=00:00:28.10 bitrate=2462.9kbits/s speed=0.925x    frame=  917 fps= 30 q=21.0 size=    8704kB time=00:00:28.60 bitrate=2493.1kbits/s speed=0.926x    frame=  932 fps= 30 q=21.0 size=    8704kB time=00:00:29.10 bitrate=2450.3kbits/s speed=0.927x    frame=  948 fps= 30 q=21.0 size=    8960kB time=00:00:29.63 bitrate=2477.0kbits/s speed=0.928x    frame=  963 fps= 30 q=21.0 size=    9216kB time=00:00:30.13 bitrate=2505.5kbits/s speed=0.929x    frame=  978 fps= 30 q=21.0 size=    9216kB time=00:00:30.63 bitrate=2464.6kbits/s speed=0.93x    frame=  993 fps= 30 q=21.0 size=    9472kB time=00:00:31.13 bitrate=2492.3kbits/s speed=0.931x    frame= 1008 fps= 30 q=21.0 size=    9728kB time=00:00:31.63 bitrate=2519.2kbits/s speed=0.932x    frame= 1023 fps= 30 q=21.0 size=    9984kB time=00:00:32.13 bitrate=2545.3kbits/s speed=0.933x    frame= 1038 fps= 30 q=21.0 size=    9984kB time=00:00:32.63 bitrate=2506.3kbits/s speed=0.934x    frame= 1053 fps= 30 q=21.0 size=   10240kB time=00:00:33.13 bitrate=2531.8kbits/s speed=0.935x    frame= 1068 fps= 30 q=21.0 size=   10496kB time=00:00:33.63 bitrate=2556.5kbits/s speed=0.936x    frame= 1083 fps= 30 q=21.0 size=   10752kB time=00:00:34.13 bitrate=2580.5kbits/s speed=0.936x    frame= 1098 fps= 30 q=21.0 size=   10752kB time=00:00:34.63 bitrate=2543.2kbits/s speed=0.937x    frame= 1113 fps= 30 q=21.0 size=   11008kB time=00:00:35.13 bitrate=2566.7kbits/s speed=0.938x    frame= 1128 fps= 30 q=21.0 size=   11264kB time=00:00:35.63 bitrate=2589.6kbits/s speed=0.939x    frame= 1143 fps= 30 q=21.0 size=   11264kB time=00:00:36.13 bitrate=2553.7kbits/s speed=0.939x    frame= 1158 fps= 30 q=21.0 size=   11520kB time=00:00:36.63 bitrate=2576.1kbits/s speed=0.94x    frame= 1173 fps= 30 q=21.0 size=   11776kB time=00:00:37.13 bitrate=2597.9kbits/s speed=0.941x    frame= 1188 fps= 30 q=21.0 size=   12032kB time=00:00:37.63 bitrate=2619.1kbits/s speed=0.941x    frame= 1203 fps= 30 q=21.0 size=   12032kB time=00:00:38.13 bitrate=2584.8kbits/s speed=0.942x    frame= 1218 fps= 30 q=21.0 size=   12288kB time=00:00:38.63 bitrate=2605.6kbits/s speed=0.943x    frame= 1233 fps= 30 q=21.0 size=   12544kB time=00:00:39.13 bitrate=2625.9kbits/s speed=0.943x    frame= 1248 fps= 30 q=21.0 size=   12800kB time=00:00:39.63 bitrate=2645.7kbits/s speed=0.944x    frame= 1263 fps= 30 q=21.0 size=   12800kB time=00:00:40.13 bitrate=2612.7kbits/s speed=0.945x    frame= 1278 fps= 30 q=21.0 size=   13056kB time=00:00:40.63 bitrate=2632.2kbits/s speed=0.945x    frame= 1293 fps= 30 q=21.0 size=   13312kB time=00:00:41.13 bitrate=2651.2kbits/s speed=0.946x    frame= 1308 fps= 30 q=21.0 size=   13568kB time=00:00:41.63 bitrate=2669.7kbits/s speed=0.946x    frame= 1323 fps= 30 q=21.0 size=   13568kB time=00:00:42.13 bitrate=2638.0kbits/s speed=0.947x    frame= 1338 fps= 30 q=21.0 size=   13824kB time=00:00:42.63 bitrate=2656.3kbits/s speed=0.947x    frame= 1353 fps= 30 q=21.0 size=   14080kB time=00:00:43.13 bitrate=2674.1kbits/s speed=0.948x    frame= 1368 fps= 30 q=21.0 size=   14336kB time=00:00:43.63 bitrate=2691.5kbits/s speed=0.948x    frame= 1383 fps= 30 q=21.0 size=   14336kB time=00:00:44.13 bitrate=2661.0kbits/s speed=0.949x    frame= 1398 fps= 30 q=21.0 size=   14592kB time=00:00:44.63 bitrate=2678.2kbits/s speed=0.949x    frame= 1413 fps= 30 q=21.0 size=   14848kB time=00:00:45.13 bitrate=2695.0kbits/s speed=0.95x    frame= 1428 fps= 30 q=21.0 size=   14848kB time=00:00:45.63 bitrate=2665.5kbits/s speed=0.95x    frame= 1443 fps= 30 q=21.0 size=   15104kB time=00:00:46.13 bitrate=2682.1kbits/s speed=0.951x    frame= 1458 fps= 30 q=21.0 size=   15360kB time=00:00:46.63 bitrate=2698.3kbits/s speed=0.951x    frame= 1473 fps= 30 q=21.0 size=   15616kB time=00:00:47.13 bitrate=2714.1kbits/s speed=0.952x    frame= 1488 fps= 30 q=21.0 size=   15616kB time=00:00:47.63 bitrate=2685.7kbits/s speed=0.952x    frame= 1503 fps= 30 q=21.0 size=   15872kB time=00:00:48.13 bitrate=2701.3kbits/s speed=0.952x    frame= 1518 fps= 30 q=21.0 size=   16128kB time=00:00:48.63 bitrate=2716.7kbits/s speed=0.953x    frame= 1533 fps= 30 q=21.0 size=   16384kB time=00:00:49.13 bitrate=2731.7kbits/s speed=0.953x    frame= 1548 fps= 30 q=21.0 size=   16384kB time=00:00:49.63 bitrate=2704.2kbits/s speed=0.954x    frame= 1563 fps= 30 q=21.0 size=   16640kB time=00:00:50.13 bitrate=2719.1kbits/s speed=0.954x    frame= 1578 fps= 30 q=21.0 size=   16896kB time=00:00:50.63 bitrate=2733.6kbits/s speed=0.954x    frame= 1593 fps= 30 q=21.0 size=   17152kB time=00:00:51.13 bitrate=2747.9kbits/s speed=0.955x    frame= 1608 fps= 30 q=21.0 size=   17408kB time=00:00:51.63 bitrate=2761.9kbits/s speed=0.955x    frame= 1623 fps= 30 q=21.0 size=   17408kB time=00:00:52.13 bitrate=2735.4kbits/s speed=0.955x    frame= 1629 fps= 29 q=-1.0 Lsize=   18397kB time=00:00:54.20 bitrate=2780.6kbits/s speed=0.98x    
video:18377kB audio:0kB subtitle:0kB other streams:0kB global headers:0kB muxing overhead: 0.110178%
[libx264 @ 000001f98c70bd40] frame I:7     Avg QP: 9.45  size: 45139
[libx264 @ 000001f98c70bd40] frame P:410   Avg QP:15.85  size: 17600
[libx264 @ 000001f98c70bd40] frame B:1212  Avg QP:22.99  size:  9311
[libx264 @ 000001f98c70bd40] consecutive B-frames:  0.8%  0.0%  0.0% 99.2%
[libx264 @ 000001f98c70bd40] mb I  I16..4: 47.8% 18.2% 34.1%
[libx264 @ 000001f98c70bd40] mb P  I16..4:  8.4%  1.2%  2.8%  P16..4: 16.0% 12.4%  8.2%  0.0%  0.0%    skip:51.0%
[libx264 @ 000001f98c70bd40] mb B  I16..4:  2.0%  0.3%  0.3%  B16..8: 22.6% 12.7%  3.6%  direct: 2.7%  skip:55.9%  L0:48.2% L1:41.8% BI:10.0%
[libx264 @ 000001f98c70bd40] 8x8 transform intra:10.5% inter:8.5%
[libx264 @ 000001f98c70bd40] coded y,uvDC,uvAC intra: 9.9% 27.8% 24.2% inter: 6.3% 16.4% 16.0%
[libx264 @ 000001f98c70bd40] i16 v,h,dc,p: 41% 55%  3%  0%
[libx264 @ 000001f98c70bd40] i8 v,h,dc,ddl,ddr,vr,hd,vl,hu: 11%  5% 84%  0%  0%  0%  0%  0%  0%
[libx264 @ 000001f98c70bd40] i4 v,h,dc,ddl,ddr,vr,hd,vl,hu: 14% 43% 36%  1%  1%  3%  0%  2%  1%
[libx264 @ 000001f98c70bd40] i8c dc,h,v,p: 59% 34%  6%  0%
[libx264 @ 000001f98c70bd40] Weighted P-Frames: Y:0.0% UV:0.0%
[libx264 @ 000001f98c70bd40] ref P L0: 58.3%  1.4% 21.9% 18.4%
[libx264 @ 000001f98c70bd40] ref B L0: 71.6% 21.7%  6.6%
[libx264 @ 000001f98c70bd40] ref B L1: 86.6% 13.4%
[libx264 @ 000001f98c70bd40] kb/s:2772.32
